<svg width="32" height="32" viewBox="0 0 32 32" fill="none" xmlns="http://www.w3.org/2000/svg">
<g id="&#232;&#189;&#187;&#231;&#167;&#146;&#229;&#156;&#168;&#231;&#186;&#191;">
<path id="Vector" d="M0 16C0 1.92 1.92 0 16 0C30.08 0 32 1.92 32 16C32 30.08 30.08 32 16 32C1.92 32 0 30.08 0 16Z" fill="url(#paint0_linear_321_9076)"/>
<g id="Subtract" filter="url(#filter0_d_321_9076)">
<path fill-rule="evenodd" clip-rule="evenodd" d="M5.33337 9.48164C5.33337 7.19068 7.19056 5.3335 9.48152 5.3335H13.6297V6.37053H13.0934C12.9086 6.37053 12.8161 6.59394 12.9467 6.7246L14.3001 8.07796C14.5026 8.28045 14.8309 8.28045 15.0334 8.07796L15.7038 7.40757H15.7038V7.40754L16.3867 6.7246C16.5174 6.59394 16.4249 6.37053 16.2401 6.37053H15.7038V5.3335H19.8519C22.1429 5.3335 24 7.19069 24 9.48164V19.852C24 22.143 22.1429 24.0002 19.8519 24.0002L15.7038 24.0002V22.9631H16.2401C16.4249 22.9631 16.5174 22.7397 16.3868 22.6091L15.7038 21.9261V21.9261H15.7038L15.0334 21.2557C14.8309 21.0532 14.5026 21.0532 14.3001 21.2557L12.9467 22.6091C12.8161 22.7397 12.9086 22.9631 13.0934 22.9631H13.6297V24.0002L9.48152 24.0002C7.19056 24.0002 5.33337 22.143 5.33337 19.852V9.48164ZM10.7262 13.0089C11.4136 13.0089 11.9708 12.4516 11.9708 11.7642C11.9708 11.0768 11.4136 10.5196 10.7262 10.5196C10.0388 10.5196 9.48152 11.0768 9.48152 11.7642C9.48152 12.4516 10.0388 13.0089 10.7262 13.0089ZM10.2787 18.8142H19.0547C19.495 18.8142 19.8519 18.4573 19.8519 18.017V14.8537C19.8519 14.6423 19.7679 14.4395 19.6184 14.29L17.5268 12.1984C17.2154 11.8871 16.7107 11.8871 16.3994 12.1984L13.8827 14.715C13.5714 15.0264 13.0667 15.0264 12.7554 14.715L12.6319 14.5916C12.3206 14.2803 11.8159 14.2803 11.5046 14.5916L9.71501 16.3811C9.56551 16.5306 9.48153 16.7334 9.48153 16.9448V18.017C9.48153 18.4573 9.83843 18.8142 10.2787 18.8142Z" fill="white"/>
</g>
<g id="Rectangle 118" filter="url(#filter1_d_321_9076)">
<rect x="14.6666" y="20" width="13.3333" height="8" rx="1.33333" fill="#77ADFF"/>
</g>
<g id="JPG">
<path d="M18.3974 24.4323C18.3974 24.9653 18.2742 25.3741 18.0276 25.6589C17.7828 25.9436 17.4313 26.0859 16.9729 26.0859C16.7698 26.0859 16.5814 26.0512 16.4078 25.9818V25.1719C16.5571 25.2847 16.7273 25.3411 16.9183 25.3411C17.3314 25.3411 17.538 25.0278 17.538 24.401V21.9818H18.3974V24.4323Z" fill="white"/>
<path d="M20.1526 24.6094V26.0156H19.2933V21.9818H20.6813C21.6847 21.9818 22.1865 22.4071 22.1865 23.2578C22.1865 23.671 22.0346 24.0026 21.7308 24.2526C21.4287 24.5009 21.0502 24.6198 20.5953 24.6094H20.1526ZM20.1526 22.6484V23.9505H20.525C21.0302 23.9505 21.2828 23.7309 21.2828 23.2917C21.2828 22.8628 21.0328 22.6484 20.5328 22.6484H20.1526Z" fill="white"/>
<path d="M26.0771 25.7448C25.683 25.9722 25.1986 26.0859 24.624 26.0859C23.9816 26.0859 23.4747 25.9054 23.1031 25.5443C22.7316 25.1832 22.5459 24.6892 22.5459 24.0625C22.5459 23.4271 22.7499 22.9106 23.1578 22.513C23.5676 22.1137 24.1066 21.9141 24.775 21.9141C25.2056 21.9141 25.5814 21.9748 25.9026 22.0964V22.9115C25.5901 22.7292 25.2082 22.638 24.7568 22.638C24.3679 22.638 24.0528 22.7648 23.8115 23.0182C23.5702 23.2717 23.4495 23.6059 23.4495 24.0208C23.4495 24.4427 23.558 24.7717 23.775 25.0078C23.9938 25.2439 24.2915 25.362 24.6683 25.362C24.8922 25.362 25.0754 25.3273 25.2177 25.2578V24.4297H24.4026V23.7396H26.0771V25.7448Z" fill="white"/>
</g>
</g>
<defs>
<filter id="filter0_d_321_9076" x="3.2593" y="4.29646" width="22.8148" height="22.8147" filterUnits="userSpaceOnUse" color-interpolation-filters="sRGB">
<feFlood flood-opacity="0" result="BackgroundImageFix"/>
<feColorMatrix in="SourceAlpha" type="matrix" values="0 0 0 0 0 0 0 0 0 0 0 0 0 0 0 0 0 0 127 0" result="hardAlpha"/>
<feOffset dy="1.03704"/>
<feGaussianBlur stdDeviation="1.03704"/>
<feComposite in2="hardAlpha" operator="out"/>
<feColorMatrix type="matrix" values="0 0 0 0 0.227451 0 0 0 0 0.498039 0 0 0 0 0.909804 0 0 0 1 0"/>
<feBlend mode="normal" in2="BackgroundImageFix" result="effect1_dropShadow_321_9076"/>
<feBlend mode="normal" in="SourceGraphic" in2="effect1_dropShadow_321_9076" result="shape"/>
</filter>
<filter id="filter1_d_321_9076" x="12" y="18" width="18.6667" height="13.3333" filterUnits="userSpaceOnUse" color-interpolation-filters="sRGB">
<feFlood flood-opacity="0" result="BackgroundImageFix"/>
<feColorMatrix in="SourceAlpha" type="matrix" values="0 0 0 0 0 0 0 0 0 0 0 0 0 0 0 0 0 0 127 0" result="hardAlpha"/>
<feOffset dy="0.666667"/>
<feGaussianBlur stdDeviation="1.33333"/>
<feComposite in2="hardAlpha" operator="out"/>
<feColorMatrix type="matrix" values="0 0 0 0 0.227083 0 0 0 0 0.49758 0 0 0 0 0.908333 0 0 0 1 0"/>
<feBlend mode="normal" in2="BackgroundImageFix" result="effect1_dropShadow_321_9076"/>
<feBlend mode="normal" in="SourceGraphic" in2="effect1_dropShadow_321_9076" result="shape"/>
</filter>
<linearGradient id="paint0_linear_321_9076" x1="0" y1="0" x2="38.3673" y2="12.5787" gradientUnits="userSpaceOnUse">
<stop stop-color="#77ADFF"/>
<stop offset="1" stop-color="#5C76FF"/>
</linearGradient>
</defs>
</svg>
