<svg width="32" height="32" viewBox="0 0 32 32" fill="none" xmlns="http://www.w3.org/2000/svg">
<g id="&#232;&#189;&#187;&#231;&#167;&#146;&#229;&#156;&#168;&#231;&#186;&#191;">
<path id="Vector" d="M0 16C0 1.92 1.92 0 16 0C30.08 0 32 1.92 32 16C32 30.08 30.08 32 16 32C1.92 32 0 30.08 0 16Z" fill="url(#paint0_linear_321_9116)"/>
<g id="Subtract" filter="url(#filter0_d_321_9116)">
<path fill-rule="evenodd" clip-rule="evenodd" d="M5.33337 9.48164C5.33337 7.19068 7.19056 5.3335 9.48152 5.3335H13.6297V6.37053H13.0934C12.9086 6.37053 12.8161 6.59394 12.9467 6.7246L14.3001 8.07796C14.5026 8.28045 14.8309 8.28045 15.0334 8.07796L15.7038 7.40757H15.7038V7.40754L16.3867 6.7246C16.5174 6.59394 16.4249 6.37053 16.2401 6.37053H15.7038V5.3335H19.8519C22.1429 5.3335 24 7.19069 24 9.48164V19.852C24 22.143 22.1429 24.0002 19.8519 24.0002L15.7038 24.0002V22.9631H16.2401C16.4249 22.9631 16.5174 22.7397 16.3867 22.6091L15.7038 21.9261V21.9261H15.7038L15.0334 21.2557C14.8309 21.0532 14.5026 21.0532 14.3001 21.2557L12.9467 22.6091C12.8161 22.7397 12.9086 22.9631 13.0934 22.9631H13.6297V24.0002L9.48152 24.0002C7.19056 24.0002 5.33337 22.143 5.33337 19.852V9.48164ZM10.7262 13.0089C11.4136 13.0089 11.9708 12.4516 11.9708 11.7642C11.9708 11.0768 11.4136 10.5196 10.7262 10.5196C10.0388 10.5196 9.48152 11.0768 9.48152 11.7642C9.48152 12.4516 10.0388 13.0089 10.7262 13.0089ZM19.0547 18.8142C19.495 18.8142 19.8519 18.4573 19.8519 18.017V14.8537C19.8519 14.6423 19.7679 14.4395 19.6184 14.29L17.5268 12.1984C17.2154 11.8871 16.7107 11.8871 16.3994 12.1984L13.8827 14.715C13.5714 15.0264 13.0667 15.0264 12.7554 14.715L12.6319 14.5916C12.3206 14.2803 11.8159 14.2803 11.5046 14.5916L9.715 16.3811C9.56551 16.5306 9.48152 16.7334 9.48152 16.9448V18.017C9.48152 18.4573 9.83842 18.8142 10.2787 18.8142H19.0547Z" fill="white"/>
</g>
<g id="Rectangle 118" filter="url(#filter1_d_321_9116)">
<rect x="14.6666" y="20" width="13.3333" height="8" rx="1.33333" fill="#A45CFF"/>
</g>
<g id="PNG">
<path d="M16.5377 24.6094V26.0156H15.6783V21.9818H17.0664C18.0698 21.9818 18.5716 22.4071 18.5716 23.2578C18.5716 23.671 18.4197 24.0026 18.1158 24.2526C17.8138 24.5009 17.4353 24.6198 16.9804 24.6094H16.5377ZM16.5377 22.6484V23.9505H16.9101C17.4153 23.9505 17.6679 23.7309 17.6679 23.2917C17.6679 22.8628 17.4179 22.6484 16.9179 22.6484H16.5377Z" fill="white"/>
<path d="M22.7695 26.0156H21.8893L20.1809 23.4062C20.0924 23.2708 20.0282 23.1615 19.9882 23.0781H19.9752C19.9908 23.217 19.9987 23.4314 19.9987 23.7214V26.0156H19.1836V21.9818H20.1211L21.7669 24.5182C21.8763 24.6866 21.9431 24.7934 21.9674 24.8385H21.9804C21.9631 24.7413 21.9544 24.5556 21.9544 24.2812V21.9818H22.7695V26.0156Z" fill="white"/>
<path d="M26.9882 25.7448C26.5941 25.9722 26.1098 26.0859 25.5351 26.0859C24.8928 26.0859 24.3858 25.9054 24.0143 25.5443C23.6428 25.1832 23.457 24.6892 23.457 24.0625C23.457 23.4271 23.661 22.9106 24.069 22.513C24.4787 22.1137 25.0178 21.9141 25.6862 21.9141C26.1167 21.9141 26.4926 21.9748 26.8138 22.0964V22.9115C26.5013 22.7292 26.1193 22.638 25.6679 22.638C25.279 22.638 24.9639 22.7648 24.7226 23.0182C24.4813 23.2717 24.3606 23.6059 24.3606 24.0208C24.3606 24.4427 24.4691 24.7717 24.6862 25.0078C24.9049 25.2439 25.2027 25.362 25.5794 25.362C25.8033 25.362 25.9865 25.3273 26.1289 25.2578V24.4297H25.3138V23.7396H26.9882V25.7448Z" fill="white"/>
</g>
</g>
<defs>
<filter id="filter0_d_321_9116" x="3.2593" y="4.29646" width="22.8148" height="22.8147" filterUnits="userSpaceOnUse" color-interpolation-filters="sRGB">
<feFlood flood-opacity="0" result="BackgroundImageFix"/>
<feColorMatrix in="SourceAlpha" type="matrix" values="0 0 0 0 0 0 0 0 0 0 0 0 0 0 0 0 0 0 127 0" result="hardAlpha"/>
<feOffset dy="1.03704"/>
<feGaussianBlur stdDeviation="1.03704"/>
<feComposite in2="hardAlpha" operator="out"/>
<feColorMatrix type="matrix" values="0 0 0 0 0.317647 0 0 0 0 0.0980392 0 0 0 0 0.937255 0 0 0 1 0"/>
<feBlend mode="normal" in2="BackgroundImageFix" result="effect1_dropShadow_321_9116"/>
<feBlend mode="normal" in="SourceGraphic" in2="effect1_dropShadow_321_9116" result="shape"/>
</filter>
<filter id="filter1_d_321_9116" x="12" y="18" width="18.6667" height="13.3333" filterUnits="userSpaceOnUse" color-interpolation-filters="sRGB">
<feFlood flood-opacity="0" result="BackgroundImageFix"/>
<feColorMatrix in="SourceAlpha" type="matrix" values="0 0 0 0 0 0 0 0 0 0 0 0 0 0 0 0 0 0 127 0" result="hardAlpha"/>
<feOffset dy="0.666667"/>
<feGaussianBlur stdDeviation="1.33333"/>
<feComposite in2="hardAlpha" operator="out"/>
<feColorMatrix type="matrix" values="0 0 0 0 0.317615 0 0 0 0 0.0976562 0 0 0 0 0.9375 0 0 0 1 0"/>
<feBlend mode="normal" in2="BackgroundImageFix" result="effect1_dropShadow_321_9116"/>
<feBlend mode="normal" in="SourceGraphic" in2="effect1_dropShadow_321_9116" result="shape"/>
</filter>
<linearGradient id="paint0_linear_321_9116" x1="0" y1="0" x2="38.8015" y2="12.5191" gradientUnits="userSpaceOnUse">
<stop stop-color="#A45CFF"/>
<stop offset="1" stop-color="#6832FF"/>
</linearGradient>
</defs>
</svg>
