<svg width="32" height="32" viewBox="0 0 32 32" fill="none" xmlns="http://www.w3.org/2000/svg">
<g id="&#232;&#189;&#187;&#231;&#167;&#146;&#229;&#156;&#168;&#231;&#186;&#191;">
<path id="Vector" d="M0 16C0 1.92 1.92 0 16 0C30.08 0 32 1.92 32 16C32 30.08 30.08 32 16 32C1.92 32 0 30.08 0 16Z" fill="url(#paint0_linear_321_9156)"/>
<g id="Subtract" filter="url(#filter0_d_321_9156)">
<path fill-rule="evenodd" clip-rule="evenodd" d="M5.33337 9.48164C5.33337 7.19068 7.19056 5.3335 9.48152 5.3335H13.6297V6.37053H13.0934C12.9086 6.37053 12.8161 6.59394 12.9467 6.7246L14.3001 8.07796C14.5026 8.28045 14.8309 8.28045 15.0334 8.07796L15.7038 7.40757H15.7038V7.40754L16.3867 6.7246C16.5174 6.59394 16.4249 6.37053 16.2401 6.37053H15.7038V5.3335H19.8519C22.1429 5.3335 24 7.19069 24 9.48164V19.852C24 22.143 22.1429 24.0002 19.8519 24.0002L15.7038 24.0002V22.9631H16.2401C16.4249 22.9631 16.5174 22.7397 16.3867 22.6091L15.7038 21.9261V21.9261H15.7038L15.0334 21.2557C14.8309 21.0532 14.5026 21.0532 14.3001 21.2557L12.9467 22.6091C12.8161 22.7397 12.9086 22.9631 13.0934 22.9631H13.6297V24.0002L9.48152 24.0002C7.19056 24.0002 5.33337 22.143 5.33337 19.852V9.48164ZM10.7262 13.0089C11.4136 13.0089 11.9708 12.4516 11.9708 11.7642C11.9708 11.0768 11.4136 10.5196 10.7262 10.5196C10.0388 10.5196 9.48154 11.0768 9.48154 11.7642C9.48154 12.4516 10.0388 13.0089 10.7262 13.0089ZM10.2787 18.8142H19.0547C19.495 18.8142 19.8519 18.4573 19.8519 18.017V14.8537C19.8519 14.6423 19.7679 14.4395 19.6184 14.29L17.5268 12.1984C17.2155 11.8871 16.7107 11.8871 16.3994 12.1984L13.8828 14.715C13.5714 15.0264 13.0667 15.0264 12.7554 14.715L12.6319 14.5916C12.3206 14.2803 11.8159 14.2803 11.5046 14.5916L9.71501 16.3811C9.56552 16.5306 9.48153 16.7334 9.48153 16.9448V18.017C9.48153 18.4573 9.83843 18.8142 10.2787 18.8142Z" fill="white"/>
</g>
<g id="Rectangle 118" filter="url(#filter1_d_321_9156)">
<rect x="14.6666" y="20" width="13.3333" height="8" rx="1.33333" fill="#38CFFF"/>
</g>
<g id="WEBP">
<path d="M19.6713 22.4185L18.8281 25.5811H18.0788L17.5398 23.519C17.5112 23.4073 17.4942 23.291 17.4887 23.1698H17.4805C17.4669 23.3114 17.4479 23.4278 17.4234 23.519L16.8721 25.5811H16.0942L15.251 22.4185H15.9901L16.4597 24.5623C16.4801 24.6562 16.4944 24.7746 16.5026 24.9175H16.5169C16.5237 24.8059 16.5448 24.6841 16.5801 24.5521L17.1682 22.4185H17.8848L18.4197 24.5786C18.4415 24.6644 18.4585 24.776 18.4708 24.9135H18.481C18.4864 24.795 18.5021 24.6793 18.528 24.5664L18.9873 22.4185H19.6713Z" fill="white"/>
<path d="M21.9499 25.5811H20.0776V22.4185H21.8764V22.9697H20.7514V23.715H21.7968V24.2642H20.7514V25.0298H21.9499V25.5811Z" fill="white"/>
<path d="M22.4705 25.5811V22.4185H23.5935C23.9379 22.4185 24.2033 22.4838 24.3898 22.6145C24.5762 22.7451 24.6695 22.9262 24.6695 23.1576C24.6695 23.3291 24.6116 23.4795 24.4959 23.6088C24.3802 23.7381 24.2346 23.8273 24.059 23.8763V23.8844C24.2795 23.9116 24.4571 23.9933 24.5919 24.1294C24.728 24.2655 24.7961 24.4364 24.7961 24.6419C24.7961 24.9291 24.694 25.1578 24.4898 25.3279C24.2856 25.4967 24.0066 25.5811 23.6527 25.5811H22.4705ZM23.1443 22.9207V23.7027H23.4649C23.6187 23.7027 23.7398 23.666 23.8283 23.5925C23.9168 23.519 23.961 23.4162 23.961 23.2842C23.961 23.0419 23.7841 22.9207 23.4302 22.9207H23.1443ZM23.1443 24.2111V25.0788H23.5445C23.7146 25.0788 23.8474 25.0394 23.9426 24.9604C24.0393 24.8815 24.0876 24.7719 24.0876 24.6317C24.0876 24.4983 24.04 24.3949 23.9447 24.3214C23.8494 24.2478 23.714 24.2111 23.5384 24.2111H23.1443Z" fill="white"/>
<path d="M26.0027 24.4786V25.5811H25.329V22.4185H26.4172C27.204 22.4185 27.5973 22.7519 27.5973 23.4189C27.5973 23.7429 27.4782 24.0028 27.24 24.1988C27.0032 24.3935 26.7065 24.4867 26.3498 24.4786H26.0027ZM26.0027 22.9411V23.962H26.2947C26.6908 23.962 26.8889 23.7898 26.8889 23.4454C26.8889 23.1092 26.6928 22.9411 26.3008 22.9411H26.0027Z" fill="white"/>
</g>
</g>
<defs>
<filter id="filter0_d_321_9156" x="3.2593" y="4.29646" width="22.8148" height="22.8147" filterUnits="userSpaceOnUse" color-interpolation-filters="sRGB">
<feFlood flood-opacity="0" result="BackgroundImageFix"/>
<feColorMatrix in="SourceAlpha" type="matrix" values="0 0 0 0 0 0 0 0 0 0 0 0 0 0 0 0 0 0 127 0" result="hardAlpha"/>
<feOffset dy="1.03704"/>
<feGaussianBlur stdDeviation="1.03704"/>
<feComposite in2="hardAlpha" operator="out"/>
<feColorMatrix type="matrix" values="0 0 0 0 0.0431373 0 0 0 0 0.690196 0 0 0 0 0.898039 0 0 0 1 0"/>
<feBlend mode="normal" in2="BackgroundImageFix" result="effect1_dropShadow_321_9156"/>
<feBlend mode="normal" in="SourceGraphic" in2="effect1_dropShadow_321_9156" result="shape"/>
</filter>
<filter id="filter1_d_321_9156" x="12" y="18" width="18.6667" height="13.3333" filterUnits="userSpaceOnUse" color-interpolation-filters="sRGB">
<feFlood flood-opacity="0" result="BackgroundImageFix"/>
<feColorMatrix in="SourceAlpha" type="matrix" values="0 0 0 0 0 0 0 0 0 0 0 0 0 0 0 0 0 0 127 0" result="hardAlpha"/>
<feOffset dy="0.666667"/>
<feGaussianBlur stdDeviation="1.33333"/>
<feComposite in2="hardAlpha" operator="out"/>
<feColorMatrix type="matrix" values="0 0 0 0 0.04125 0 0 0 0 0.691377 0 0 0 0 0.9 0 0 0 1 0"/>
<feBlend mode="normal" in2="BackgroundImageFix" result="effect1_dropShadow_321_9156"/>
<feBlend mode="normal" in="SourceGraphic" in2="effect1_dropShadow_321_9156" result="shape"/>
</filter>
<linearGradient id="paint0_linear_321_9156" x1="0" y1="0" x2="38.3673" y2="12.5787" gradientUnits="userSpaceOnUse">
<stop stop-color="#69E0D8"/>
<stop offset="1" stop-color="#50B2EB"/>
</linearGradient>
</defs>
</svg>
