<svg width="32" height="32" viewBox="0 0 32 32" fill="none" xmlns="http://www.w3.org/2000/svg">
<path d="M0 16C0 1.92 1.92 0 16 0C30.08 0 32 1.92 32 16C32 30.08 30.08 32 16 32C1.92 32 0 30.08 0 16Z" fill="url(#paint0_linear_1184_89198)"/>
<g filter="url(#filter0_d_1184_89198)">
<path fill-rule="evenodd" clip-rule="evenodd" d="M5.33337 9.48148C5.33337 7.19052 7.19056 5.33333 9.48152 5.33333H13.6297V6.37037H13.0934C12.9086 6.37037 12.8161 6.59378 12.9467 6.72444L14.3001 8.0778C14.5026 8.28029 14.8309 8.28029 15.0334 8.0778L15.7038 7.40741H15.7038V7.40738L16.3867 6.72444C16.5174 6.59378 16.4249 6.37037 16.2401 6.37037H15.7038V5.33333H19.8519C22.1429 5.33333 24 7.19052 24 9.48148V19.8519C24 22.1428 22.1429 24 19.8519 24L15.7038 24V22.963H16.2401C16.4249 22.963 16.5174 22.7396 16.3868 22.6089L15.7038 21.926V21.9259H15.7038L15.0334 21.2555C14.8309 21.053 14.5026 21.053 14.3001 21.2555L12.9467 22.6089C12.8161 22.7396 12.9086 22.963 13.0934 22.963H13.6297V24L9.48152 24C7.19056 24 5.33337 22.1428 5.33337 19.8519V9.48148ZM10.7262 13.0087C11.4136 13.0087 11.9708 12.4515 11.9708 11.7641C11.9708 11.0767 11.4136 10.5194 10.7262 10.5194C10.0388 10.5194 9.48152 11.0767 9.48152 11.7641C9.48152 12.4515 10.0388 13.0087 10.7262 13.0087ZM10.2787 18.814H19.0547C19.495 18.814 19.8519 18.4571 19.8519 18.0169V14.8536C19.8519 14.6421 19.7679 14.4394 19.6184 14.2899L17.5268 12.1982C17.2154 11.8869 16.7107 11.8869 16.3994 12.1982L13.8827 14.7149C13.5714 15.0262 13.0667 15.0262 12.7554 14.7149L12.6319 14.5914C12.3206 14.2801 11.8159 14.2801 11.5046 14.5914L9.71501 16.381C9.56551 16.5305 9.48153 16.7332 9.48153 16.9447V18.0169C9.48153 18.4571 9.83843 18.814 10.2787 18.814Z" fill="white"/>
</g>
<g filter="url(#filter1_d_1184_89198)">
<rect x="14.6666" y="20" width="13.3333" height="8" rx="1.33333" fill="#77ADFF"/>
</g>
<path d="M16.1807 24.8354L16.8838 24.7671C16.9261 25.0031 17.0116 25.1764 17.1401 25.2871C17.2703 25.3978 17.4453 25.4531 17.665 25.4531C17.8978 25.4531 18.0728 25.4043 18.1899 25.3066C18.3088 25.2074 18.3682 25.0918 18.3682 24.96C18.3682 24.8753 18.3429 24.8037 18.2925 24.7451C18.2437 24.6849 18.1574 24.6328 18.0337 24.5889C17.9491 24.5596 17.7562 24.5075 17.4551 24.4326C17.0677 24.3366 16.7959 24.2186 16.6396 24.0786C16.4199 23.8817 16.3101 23.6416 16.3101 23.3584C16.3101 23.1761 16.3613 23.006 16.4639 22.8481C16.568 22.6886 16.717 22.5674 16.9106 22.4844C17.106 22.4014 17.3411 22.3599 17.6162 22.3599C18.0654 22.3599 18.4032 22.4583 18.6294 22.6553C18.8573 22.8522 18.9769 23.1151 18.9883 23.4438L18.2656 23.4756C18.2347 23.2917 18.168 23.1598 18.0654 23.0801C17.9645 22.9987 17.8123 22.958 17.6089 22.958C17.3989 22.958 17.2345 23.0011 17.1157 23.0874C17.0392 23.1427 17.001 23.2168 17.001 23.3096C17.001 23.3942 17.0368 23.4666 17.1084 23.5269C17.1995 23.6034 17.4209 23.6831 17.7725 23.7661C18.124 23.8491 18.3836 23.9354 18.5513 24.0249C18.7205 24.1128 18.8524 24.234 18.9468 24.3887C19.0428 24.5417 19.0908 24.7313 19.0908 24.9575C19.0908 25.1626 19.0339 25.3547 18.9199 25.5337C18.806 25.7127 18.6449 25.8462 18.4365 25.9341C18.2282 26.0203 17.9686 26.0635 17.6577 26.0635C17.2052 26.0635 16.8577 25.9593 16.6152 25.751C16.3727 25.541 16.2279 25.2358 16.1807 24.8354ZM20.6118 26L19.3325 22.4209H20.1162L21.022 25.0698L21.8984 22.4209H22.665L21.3833 26H20.6118ZM24.6987 24.6841V24.0811H26.2563V25.5068C26.105 25.6533 25.8853 25.7827 25.5972 25.895C25.3107 26.0057 25.0202 26.061 24.7256 26.061C24.3512 26.061 24.0249 25.9829 23.7466 25.8267C23.4683 25.6688 23.2591 25.4442 23.1191 25.1528C22.9792 24.8599 22.9092 24.5417 22.9092 24.1982C22.9092 23.8255 22.9873 23.4943 23.1436 23.2046C23.2998 22.9149 23.5285 22.6927 23.8296 22.5381C24.0591 22.4193 24.3447 22.3599 24.6865 22.3599C25.1309 22.3599 25.4775 22.4535 25.7266 22.6406C25.9772 22.8262 26.1383 23.0833 26.21 23.4121L25.4922 23.5464C25.4417 23.3706 25.3465 23.2323 25.2065 23.1313C25.0682 23.0288 24.8949 22.9775 24.6865 22.9775C24.3708 22.9775 24.1193 23.0776 23.9321 23.2778C23.7466 23.478 23.6538 23.7751 23.6538 24.1689C23.6538 24.5938 23.7482 24.9128 23.937 25.126C24.1258 25.3376 24.3732 25.4434 24.6792 25.4434C24.8306 25.4434 24.9819 25.4141 25.1333 25.3555C25.2863 25.2952 25.4173 25.2228 25.5264 25.1382V24.6841H24.6987Z" fill="white"/>
<defs>
<filter id="filter0_d_1184_89198" x="3.2593" y="4.2963" width="22.8148" height="22.8148" filterUnits="userSpaceOnUse" color-interpolation-filters="sRGB">
<feFlood flood-opacity="0" result="BackgroundImageFix"/>
<feColorMatrix in="SourceAlpha" type="matrix" values="0 0 0 0 0 0 0 0 0 0 0 0 0 0 0 0 0 0 127 0" result="hardAlpha"/>
<feOffset dy="1.03704"/>
<feGaussianBlur stdDeviation="1.03704"/>
<feComposite in2="hardAlpha" operator="out"/>
<feColorMatrix type="matrix" values="0 0 0 0 0.227451 0 0 0 0 0.498039 0 0 0 0 0.909804 0 0 0 1 0"/>
<feBlend mode="normal" in2="BackgroundImageFix" result="effect1_dropShadow_1184_89198"/>
<feBlend mode="normal" in="SourceGraphic" in2="effect1_dropShadow_1184_89198" result="shape"/>
</filter>
<filter id="filter1_d_1184_89198" x="12" y="18" width="18.6667" height="13.3333" filterUnits="userSpaceOnUse" color-interpolation-filters="sRGB">
<feFlood flood-opacity="0" result="BackgroundImageFix"/>
<feColorMatrix in="SourceAlpha" type="matrix" values="0 0 0 0 0 0 0 0 0 0 0 0 0 0 0 0 0 0 127 0" result="hardAlpha"/>
<feOffset dy="0.666667"/>
<feGaussianBlur stdDeviation="1.33333"/>
<feComposite in2="hardAlpha" operator="out"/>
<feColorMatrix type="matrix" values="0 0 0 0 0.227083 0 0 0 0 0.49758 0 0 0 0 0.908333 0 0 0 1 0"/>
<feBlend mode="normal" in2="BackgroundImageFix" result="effect1_dropShadow_1184_89198"/>
<feBlend mode="normal" in="SourceGraphic" in2="effect1_dropShadow_1184_89198" result="shape"/>
</filter>
<linearGradient id="paint0_linear_1184_89198" x1="0" y1="0" x2="38.3673" y2="12.5787" gradientUnits="userSpaceOnUse">
<stop stop-color="#77ADFF"/>
<stop offset="1" stop-color="#5C76FF"/>
</linearGradient>
</defs>
</svg>
