<svg width="32" height="32" viewBox="0 0 32 32" fill="none" xmlns="http://www.w3.org/2000/svg">
<g id="&#232;&#189;&#187;&#231;&#167;&#146;&#229;&#156;&#168;&#231;&#186;&#191;">
<path id="Vector" d="M0 16C0 1.92 1.92 0 16 0C30.08 0 32 1.92 32 16C32 30.08 30.08 32 16 32C1.92 32 0 30.08 0 16Z" fill="url(#paint0_linear_321_9057)"/>
<g id="Subtract" filter="url(#filter0_d_321_9057)">
<path fill-rule="evenodd" clip-rule="evenodd" d="M5.33337 10.0742C5.33337 7.456 7.45588 5.3335 10.0741 5.3335H14.8149V6.51868H14.202C13.9908 6.51868 13.885 6.774 14.0344 6.92333L15.581 8.47002C15.8125 8.70145 16.1877 8.70145 16.4191 8.47003L17.1853 7.70387H17.1853V7.70383L17.9658 6.92333C18.1151 6.774 18.0094 6.51868 17.7982 6.51868H17.1853V5.3335H21.926C24.5442 5.3335 26.6667 7.456 26.6667 10.0742V21.9261C26.6667 24.5443 24.5442 26.6668 21.926 26.6668H17.1853V25.4816H17.7982C18.0094 25.4816 18.1151 25.2263 17.9658 25.077L17.1853 24.2965V24.2965H17.1853L16.4191 23.5303C16.1877 23.2989 15.8125 23.2989 15.581 23.5303L14.0344 25.077C13.885 25.2263 13.9908 25.4816 14.202 25.4816H14.8149V26.6668H10.0741C7.45588 26.6668 5.33337 24.5443 5.33337 21.9261V10.0742ZM11.4966 14.1053C12.2822 14.1053 12.919 13.4685 12.919 12.6829C12.919 11.8973 12.2822 11.2604 11.4966 11.2604C10.711 11.2604 10.0741 11.8973 10.0741 12.6829C10.0741 13.4685 10.711 14.1053 11.4966 14.1053ZM10.9852 20.74H21.0149C21.5181 20.74 21.926 20.3321 21.926 19.829V16.2138C21.926 15.9721 21.83 15.7404 21.6591 15.5696L19.2687 13.1791C18.9129 12.8233 18.336 12.8233 17.9803 13.1791L15.1041 16.0553C14.7483 16.4111 14.1715 16.411 13.8157 16.0553L13.6746 15.9142C13.3188 15.5584 12.7419 15.5584 12.3862 15.9142L10.341 17.9594C10.1701 18.1302 10.0741 18.362 10.0741 18.6036V19.829C10.0741 20.3321 10.482 20.74 10.9852 20.74Z" fill="white"/>
</g>
</g>
<defs>
<filter id="filter0_d_321_9057" x="2.963" y="4.14831" width="26.0741" height="26.0742" filterUnits="userSpaceOnUse" color-interpolation-filters="sRGB">
<feFlood flood-opacity="0" result="BackgroundImageFix"/>
<feColorMatrix in="SourceAlpha" type="matrix" values="0 0 0 0 0 0 0 0 0 0 0 0 0 0 0 0 0 0 127 0" result="hardAlpha"/>
<feOffset dy="1.18519"/>
<feGaussianBlur stdDeviation="1.18519"/>
<feComposite in2="hardAlpha" operator="out"/>
<feColorMatrix type="matrix" values="0 0 0 0 1 0 0 0 0 0.584314 0 0 0 0 0.101961 0 0 0 1 0"/>
<feBlend mode="normal" in2="BackgroundImageFix" result="effect1_dropShadow_321_9057"/>
<feBlend mode="normal" in="SourceGraphic" in2="effect1_dropShadow_321_9057" result="shape"/>
</filter>
<linearGradient id="paint0_linear_321_9057" x1="0" y1="0" x2="38.3673" y2="12.5787" gradientUnits="userSpaceOnUse">
<stop stop-color="#FFBA52"/>
<stop offset="1" stop-color="#FA7A5E"/>
</linearGradient>
</defs>
</svg>
