<?xml version="1.0" standalone="no"?><!DOCTYPE svg PUBLIC "-//W3C//DTD SVG 1.1//EN" "http://www.w3.org/Graphics/SVG/1.1/DTD/svg11.dtd"><svg class="icon" width="200px" height="200.00px" viewBox="0 0 1024 1024" version="1.1" xmlns="http://www.w3.org/2000/svg"><path d="M536.573543 651.30127l299.868448-299.823931a39.130696 39.130696 0 0 1 55.334988 55.290471l-362.726858 362.726858c-17.539811 16.916569-45.318599 16.916569-62.85841 0L102.173852 407.435569a39.130696 39.130696 0 1 1 55.334988-55.29047l299.868448 299.82393V44.708712a39.620386 39.620386 0 1 1 78.573013 0l0.623242 606.592558zM56.944288 1016.565613a39.620386 39.620386 0 0 1 0-78.573012h880.106772a39.620386 39.620386 0 0 1 0 78.573012H56.899771z" fill="#FFFFFF" /></svg>