<svg width="96" height="96" viewBox="0 0 96 96" fill="none" xmlns="http://www.w3.org/2000/svg">
<path d="M17 16.8889C17 11.9797 20.9797 8 25.889 8H53.3184C55.6759 8 57.9368 8.9365 59.6038 10.6035L76.6191 27.6187C78.2861 29.2857 79.2227 31.5467 79.2227 33.9042V79.1111C79.2227 84.0203 75.2429 88 70.3337 88H25.889C20.9797 88 17 84.0203 17 79.1111V16.8889Z" fill="url(#paint0_linear_659_3488)"/>
<path fill-rule="evenodd" clip-rule="evenodd" d="M76.6243 27.6241C77.3818 28.3829 77.9882 29.2646 78.424 30.2222H63.6667C59.9848 30.2222 57 27.2374 57 23.5555V8.79834C57.9582 9.23438 58.8403 9.8412 59.5995 10.5994C59.6008 10.6007 59.6022 10.6021 59.6035 10.6034L76.6189 27.6187C76.6207 27.6205 76.6225 27.6223 76.6243 27.6241Z" fill="url(#paint1_linear_659_3488)"/>
<path d="M38 52H58" stroke="white" stroke-width="4" stroke-linecap="round"/>
<path d="M48 42L48 62" stroke="white" stroke-width="4" stroke-linecap="round"/>
<defs>
<linearGradient id="paint0_linear_659_3488" x1="17" y1="8" x2="94.5386" y2="68.3082" gradientUnits="userSpaceOnUse">
<stop stop-color="#7DA5FF"/>
<stop offset="1" stop-color="#165DFF"/>
</linearGradient>
<linearGradient id="paint1_linear_659_3488" x1="80.1115" y1="7.99975" x2="56.1115" y2="31.9999" gradientUnits="userSpaceOnUse">
<stop stop-color="white" stop-opacity="0"/>
<stop offset="1" stop-color="white"/>
</linearGradient>
</defs>
</svg>
